<svg width="446" height="354" viewBox="0 0 446 354" fill="none" xmlns="http://www.w3.org/2000/svg">
<g opacity="0.8" filter="url(#filter0_f_1_2761)">
<path d="M89 232.822H190.879V216.803H202.86V194.876H216.013V211.849L242.811 188.177V264.783H344.69V248.779H356.668V216.803H344.69V141.758L323.955 120.961H242.811V145.732L216.013 121.96V138.744H190.879V109.797L170.144 89H89V232.822Z" fill="url(#paint0_linear_1_2761)"/>
</g>
<g filter="url(#filter1_d_1_2761)">
<path fill-rule="evenodd" clip-rule="evenodd" d="M242.813 264.783H344.692V141.758L323.957 120.961H242.813V264.783Z" fill="#F20036"/>
<path fill-rule="evenodd" clip-rule="evenodd" d="M323.986 141.744L334.312 131.372L344.691 141.744V162.544L323.986 141.744Z" fill="#E10029"/>
<path fill-rule="evenodd" clip-rule="evenodd" d="M344.691 141.762H323.985V120.978L344.691 141.762Z" fill="#A8000A"/>
<path fill-rule="evenodd" clip-rule="evenodd" d="M321.728 173.144L308.826 175.553L297.994 160.763L302.349 150.847L300.063 144.218L286.617 145.095L284.222 149.313L291.516 161.366L281.881 180.595L264.244 183.881L260.706 195.605L269.688 204.918L278.724 204.809L285.91 188.318L304.472 182.95L309.153 190.674L319.169 189.798L324.994 176.978L321.728 173.144ZM290.046 149.751L297.014 150.354L294.347 155.668L290.046 149.751ZM273.553 197.247L270.45 192.811L276.656 191.002L273.553 197.247ZM290.046 179.059L295.163 167.392L301.042 177.033L290.046 179.059ZM312.528 180.595L317.427 179.169L314.488 183.279L312.528 180.595Z" fill="white"/>
<path fill-rule="evenodd" clip-rule="evenodd" d="M276.771 216.803H356.671V248.779H276.771V216.803Z" fill="#A8000A"/>
<path fill-rule="evenodd" clip-rule="evenodd" d="M287.956 237.212V241.192H292.065V237.212H287.956ZM307.848 234.426C308.503 233.911 309.017 233.272 309.392 232.509C309.766 231.747 309.953 230.86 309.953 229.848V229.798C309.953 228.902 309.796 228.085 309.481 227.347C309.166 226.61 308.716 225.975 308.129 225.444C307.542 224.913 306.827 224.503 305.985 224.213C305.143 223.923 304.186 223.777 303.114 223.777H295.816V241.192H299.746V235.968H302.732C303.735 235.968 304.675 235.84 305.551 235.582C306.427 235.324 307.193 234.939 307.848 234.426ZM305.117 227.907C305.687 228.355 305.972 229.011 305.972 229.873V229.922C305.972 230.669 305.7 231.295 305.156 231.8C304.611 232.306 303.846 232.559 302.859 232.559H299.746V227.235H302.783C303.769 227.235 304.547 227.459 305.117 227.907ZM326.681 238.68C327.523 237.9 328.174 236.98 328.633 235.918C329.092 234.857 329.322 233.713 329.322 232.485V232.435C329.322 231.208 329.092 230.067 328.633 229.014C328.174 227.96 327.523 227.045 326.681 226.265C325.839 225.486 324.835 224.876 323.67 224.437C322.504 223.997 321.224 223.777 319.829 223.777H312.863V241.192H319.829C321.224 241.192 322.504 240.968 323.67 240.52C324.835 240.073 325.839 239.459 326.681 238.68ZM324.818 230.371C325.082 231.016 325.214 231.722 325.214 232.485V232.534C325.214 233.314 325.082 234.019 324.818 234.65C324.554 235.28 324.189 235.828 323.721 236.291C323.253 236.756 322.687 237.112 322.024 237.361C321.36 237.609 320.629 237.734 319.829 237.734H316.792V227.235H319.829C320.629 227.235 321.36 227.364 322.024 227.621C322.687 227.878 323.253 228.239 323.721 228.703C324.189 229.168 324.554 229.724 324.818 230.371ZM336.748 230.992V227.235H346.42V223.777H332.818V241.192H336.748V234.45H345.271V230.992H336.748Z" fill="white"/>
<path fill-rule="evenodd" clip-rule="evenodd" d="M219.013 121.953V138.737H159.92V194.869H219.013V211.842L269.785 166.992L219.013 121.953Z" fill="#1B0B1C"/>
<path fill-rule="evenodd" clip-rule="evenodd" d="M234 160.524C234 159.791 233.474 158.892 232.831 158.525L221.669 152.162C221.026 151.796 219.974 151.796 219.331 152.162L208.169 158.525C207.526 158.892 207 159.791 207 160.524V173.25C207 173.617 207.131 174.025 207.343 174.387C207.555 174.75 207.847 175.066 208.169 175.25L219.331 181.612C219.662 181.801 220.102 181.893 220.539 181.887C220.632 181.886 220.725 181.88 220.816 181.87C221.129 181.836 221.428 181.75 221.669 181.612L232.831 175.25C233.152 175.066 233.445 174.75 233.656 174.387C233.868 174.025 234 173.617 234 173.25V160.524ZM220.5 175.774C215.537 175.774 211.5 171.787 211.5 166.887C211.5 161.987 215.537 158.001 220.5 158.001C223.702 158.001 226.689 159.703 228.294 162.441L224.399 164.667C223.596 163.296 222.101 162.444 220.5 162.444C218.019 162.444 216 164.437 216 166.887C216 169.337 218.019 171.331 220.5 171.331C222.102 171.331 223.596 170.479 224.399 169.108L228.294 171.333C226.689 174.072 223.702 175.774 220.5 175.774ZM229.5 166.394H228.5V165.406H227.5V166.394H226.5V167.381H227.5V168.368H228.5V167.381H229.5V166.394ZM233.25 166.394H232.25V165.406H231.25V166.394H230.25V167.381H231.25V168.368H232.25V167.381H233.25V166.394Z" fill="white"/>
<path fill-rule="evenodd" clip-rule="evenodd" d="M89 232.822H190.879V109.797L170.144 89.0002H89V232.822Z" fill="#F49400"/>
<path fill-rule="evenodd" clip-rule="evenodd" d="M170.174 109.801L180.499 99.427L190.879 109.801V130.6L170.174 109.801Z" fill="#F08400"/>
<path fill-rule="evenodd" clip-rule="evenodd" d="M190.878 109.818H170.173V89.0354L190.878 109.818Z" fill="#D23F00"/>
<path fill-rule="evenodd" clip-rule="evenodd" d="M105.982 184.828H202.86V216.804H105.982V184.828Z" fill="#D24000"/>
<path fill-rule="evenodd" clip-rule="evenodd" d="M162.132 129.773H140.942H128.558L129.359 138.806H140.942H161.331L158.924 165.886L140.942 170.894L140.927 170.9L122.954 165.886L121.698 151.722H130.504L131.16 159.072L140.932 161.723L140.942 161.718L150.724 159.067L151.744 147.628H140.942H121.338L118.966 120.961H140.942H162.912L162.132 129.773Z" fill="#FEFEFE"/>
<path fill-rule="evenodd" clip-rule="evenodd" d="M134.22 209.867V202.65H127.128V209.867H123.283V191.889H127.128V199.003H134.22V191.889H138.065V209.867H134.22ZM114.983 209.867V205.758H119.003V209.867H114.983ZM150.1 209.867V195.535H155.418V191.889H140.936V195.535H146.255V209.867H150.1ZM171.96 209.867V198.13L167.041 205.809H166.942L162.073 198.207V209.867H158.277V191.889H162.422L167.016 199.491L171.611 191.889H175.756V209.867H171.96ZM180.315 191.889V209.867H192.875V206.297H184.16V191.889H180.315Z" fill="white"/>
</g>
<defs>
<filter id="filter0_f_1_2761" x="0" y="0" width="445.668" height="353.783" filterUnits="userSpaceOnUse" color-interpolation-filters="sRGB">
<feFlood flood-opacity="0" result="BackgroundImageFix"/>
<feBlend mode="normal" in="SourceGraphic" in2="BackgroundImageFix" result="shape"/>
<feGaussianBlur stdDeviation="44.5" result="effect1_foregroundBlur_1_2761"/>
</filter>
<filter id="filter1_d_1_2761" x="69" y="74.0002" width="307.671" height="215.783" filterUnits="userSpaceOnUse" color-interpolation-filters="sRGB">
<feFlood flood-opacity="0" result="BackgroundImageFix"/>
<feColorMatrix in="SourceAlpha" type="matrix" values="0 0 0 0 0 0 0 0 0 0 0 0 0 0 0 0 0 0 127 0" result="hardAlpha"/>
<feOffset dy="5"/>
<feGaussianBlur stdDeviation="10"/>
<feColorMatrix type="matrix" values="0 0 0 0 0 0 0 0 0 0 0 0 0 0 0 0 0 0 0.15 0"/>
<feBlend mode="normal" in2="BackgroundImageFix" result="effect1_dropShadow_1_2761"/>
<feBlend mode="normal" in="SourceGraphic" in2="effect1_dropShadow_1_2761" result="shape"/>
</filter>
<linearGradient id="paint0_linear_1_2761" x1="47.8588" y1="103.086" x2="255.471" y2="304.213" gradientUnits="userSpaceOnUse">
<stop stop-color="#E01A59"/>
<stop offset="1" stop-color="#460A48"/>
</linearGradient>
</defs>
</svg>
