<svg width="113" height="43" viewBox="0 0 113 43" fill="none" xmlns="http://www.w3.org/2000/svg">
<path d="M1.26738 39.277H2.64185V31.2622H5.55146V30.084H2.624V29.3343C2.624 28.0312 3.15951 27.3708 4.23053 27.3708C4.71249 27.3708 5.0695 27.46 5.56931 27.6028V26.4069C5.12305 26.2462 4.69464 26.1748 4.05203 26.1748C3.21306 26.1748 2.5526 26.4069 2.07064 26.8888C1.53513 27.4243 1.26738 28.2097 1.26738 29.2629V30.0662H0V31.2622H1.26738V39.277Z" fill="#C6AAC6"/>
<path d="M10.705 39.4912C13.4896 39.4912 15.5424 37.2956 15.5424 34.6716V34.6359C15.5424 32.0297 13.5253 29.852 10.7407 29.852C7.93819 29.852 5.9211 32.0476 5.9211 34.6716V34.7073C5.9211 37.3134 7.93819 39.4912 10.705 39.4912ZM10.7407 38.2595C8.79501 38.2595 7.33128 36.653 7.33128 34.6716V34.6359C7.33128 32.6902 8.70575 31.0658 10.705 31.0658C12.6507 31.0658 14.1323 32.6902 14.1323 34.6716V34.7073C14.1323 36.6351 12.7399 38.2595 10.7407 38.2595Z" fill="#C6AAC6"/>
<path d="M17.3948 39.277H18.7693V35.5998C18.7693 32.8151 20.4115 31.3693 22.4286 31.3693H22.5357V29.8877C20.7863 29.8341 19.4476 30.923 18.7693 32.4581V30.0483H17.3948V39.277Z" fill="#C6AAC6"/>
<path d="M28.9377 39.277H30.3479V34.8679H33.3824C36.0421 34.8679 38.2913 33.4756 38.2913 30.7802V30.7445C38.2913 28.2811 36.4348 26.7817 33.6145 26.7817H28.9377V39.277ZM30.3479 33.5827V28.0848H33.5074C35.5245 28.0848 36.8633 29.013 36.8633 30.798V30.8337C36.8633 32.476 35.5066 33.5827 33.436 33.5827H30.3479Z" fill="#C6AAC6"/>
<path d="M44.1109 37.7418L40.755 30.0483H39.2377L43.4325 39.2413C42.8792 40.5443 42.3794 40.9727 41.5404 40.9727C40.9513 40.9727 40.5408 40.8656 40.0945 40.6336L39.6304 41.7225C40.2552 42.0259 40.8264 42.1866 41.594 42.1866C42.9684 42.1866 43.8788 41.4904 44.6642 39.5804L48.5377 30.0483H47.074L44.1109 37.7418Z" fill="#C6AAC6"/>
<path d="M53.1629 39.4376C53.8233 39.4376 54.341 39.3127 54.823 39.0449V37.8668C54.341 38.0988 53.9661 38.1881 53.4842 38.1881C52.556 38.1881 51.9312 37.7954 51.9312 36.653V31.2622H54.8587V30.0483H51.9312V27.2637H50.5567V30.0483H49.2715V31.2622H50.5567V36.8315C50.5567 38.7058 51.6635 39.4376 53.1629 39.4376Z" fill="#C6AAC6"/>
<path d="M56.6541 39.277H58.0286V33.9933C58.0286 32.2618 59.2067 31.1015 60.7954 31.1015C62.4376 31.1015 63.348 32.1725 63.348 33.8862V39.277H64.7225V33.547C64.7225 31.3514 63.4015 29.852 61.1881 29.852C59.5994 29.852 58.6533 30.6552 58.0286 31.6549V26.2462H56.6541V39.277Z" fill="#C6AAC6"/>
<path d="M71.2289 39.4912C74.0135 39.4912 76.0663 37.2956 76.0663 34.6716V34.6359C76.0663 32.0297 74.0492 29.852 71.2646 29.852C68.4621 29.852 66.445 32.0476 66.445 34.6716V34.7073C66.445 37.3134 68.4621 39.4912 71.2289 39.4912ZM71.2646 38.2595C69.3189 38.2595 67.8551 36.653 67.8551 34.6716V34.6359C67.8551 32.6902 69.2296 31.0658 71.2289 31.0658C73.1745 31.0658 74.6561 32.6902 74.6561 34.6716V34.7073C74.6561 36.6351 73.2638 38.2595 71.2646 38.2595Z" fill="#C6AAC6"/>
<path d="M77.9186 39.277H79.2931V33.9933C79.2931 32.2618 80.4712 31.1015 82.0599 31.1015C83.7021 31.1015 84.6125 32.1725 84.6125 33.8862V39.277H85.987V33.547C85.987 31.3514 84.6661 29.852 82.4526 29.852C80.8639 29.852 79.9179 30.6552 79.2931 31.6549V30.0483H77.9186V39.277Z" fill="#C6AAC6"/>
<path d="M0 0.3493H3.73389V17.4287H0V0.285807V0.3493ZM7.93843 0.3493H15.6886C17.8223 0.3493 19.4539 0.92073 20.6148 2.06359C21.1032 2.5889 21.4825 3.2079 21.7304 3.88402C21.9783 4.56014 22.0897 5.27968 22.0582 6.00012V6.03186C22.0582 7.42869 21.7444 8.57156 21.0541 9.4287C20.377 10.2952 19.4754 10.9546 18.4498 11.3335L22.5602 17.4605H18.2302L14.5904 11.9684H11.7037V17.4605H8.00119V0.285807L7.93843 0.3493ZM15.469 8.63505C16.3789 8.63505 17.0692 8.44457 17.5712 8.00012C17.8154 7.77734 18.0069 7.50194 18.1319 7.19425C18.2568 6.88656 18.3118 6.55442 18.2929 6.22234V6.19059C18.2929 5.36519 18.0419 4.76202 17.5399 4.34932C17.0064 3.93662 16.2848 3.71439 15.3748 3.71439H11.6723V8.63505H15.469ZM33.6677 17.7462C31.2643 17.7737 28.9452 16.8511 27.204 15.1748C26.3854 14.3678 25.7401 13.3988 25.3082 12.3283C24.8763 11.2577 24.6672 10.1085 24.6939 8.95251V8.85727C24.6725 7.1047 25.1769 5.38678 26.1404 3.93019C27.1039 2.4736 28.4813 1.34681 30.0907 0.698507C31.1889 0.254061 32.3813 9.15238e-05 33.6991 9.15238e-05C36.0961 -0.0106415 38.403 0.922996 40.1314 2.60328C40.95 3.4102 41.5954 4.3792 42.0273 5.44978C42.4592 6.52036 42.6683 7.66952 42.6416 8.82553V8.85727C42.663 10.6098 42.1586 12.3278 41.1951 13.7844C40.2316 15.2409 38.8542 16.3677 37.2447 17.016C36.1116 17.4955 34.896 17.7437 33.6677 17.7462ZM33.6677 14.2541C34.3524 14.2636 35.0317 14.1304 35.6633 13.8628C36.2949 13.5952 36.8652 13.1989 37.3389 12.6986C38.2675 11.6796 38.7731 10.3383 38.7509 8.95251V8.85727C38.7809 7.44526 38.2628 6.07758 37.3075 5.04773C36.8343 4.54469 36.2647 4.1445 35.6335 3.87159C35.0023 3.59869 34.3228 3.45878 33.6364 3.46042C32.955 3.46124 32.2809 3.60239 31.6551 3.87528C31.0294 4.14817 30.4651 4.54709 29.9966 5.04773C29.049 6.06966 28.5314 7.42443 28.5533 8.82553V8.85727C28.5517 10.2641 29.066 11.6215 29.9966 12.6668C30.4673 13.143 31.0007 13.524 31.6282 13.8097C32.2558 14.1271 32.9461 14.2541 33.6991 14.2541H33.6677ZM45.9676 0.3493H49.4191L57.3262 10.889V0.3493H60.9659V17.4287H57.8282L49.6074 6.57165V17.4287H45.9676V0.3493Z" fill="white"/>
<path d="M64.8259 0.349487H71.1641C72.1054 0.349487 72.9839 0.476472 73.7684 0.730441C74.5528 0.984411 75.2117 1.33362 75.7765 1.77806C76.3299 2.28139 76.7702 2.89884 77.0679 3.58882C77.3656 4.27881 77.5137 5.02531 77.5023 5.77808V5.80983C77.5023 6.76221 77.314 7.55587 76.9689 8.25428C76.6237 8.9527 76.1217 9.52413 75.5255 10.0003C74.896 10.48 74.1828 10.8354 73.4232 11.0479C72.6074 11.3019 71.7602 11.3972 70.8503 11.3972H66.7713V17.4289H64.8259V0.349487ZM70.9444 9.68286C71.6347 9.68286 72.2623 9.58762 72.8271 9.39714C73.3619 9.24006 73.8624 8.98149 74.3018 8.63524C74.7025 8.30679 75.0239 7.89014 75.2414 7.41701C75.4589 6.94388 75.5668 6.42677 75.5569 5.90507V5.84157C75.5569 4.63522 75.1804 3.68283 74.3332 3.07966C73.486 2.47648 72.3878 2.12727 71.0386 2.12727H66.7399V9.68286H70.9444ZM80.9851 0.349487H86.8527C88.1705 0.349487 89.3629 0.539964 90.4924 0.98441C91.5906 1.42886 92.532 2.03203 93.3164 2.79394C94.1314 3.56349 94.7764 4.49871 95.209 5.53824C95.6416 6.57776 95.8521 7.69809 95.8266 8.82571V8.8892C95.8432 10.0422 95.6298 11.1867 95.199 12.2543C94.7685 13.2883 94.1269 14.2187 93.3164 14.9845C92.4987 15.7656 91.5399 16.3799 90.4924 16.794C89.3629 17.2384 88.1705 17.4289 86.8527 17.4289H80.9851V0.349487ZM86.8527 15.6511C87.9195 15.6511 88.8608 15.4924 89.7394 15.1432C90.5529 14.8383 91.2942 14.3644 91.9157 13.752C92.5372 13.1396 93.025 12.4023 93.3478 11.5876C93.6819 10.7504 93.8524 9.85558 93.8498 8.9527V8.85746C93.8498 7.90507 93.6929 7.04793 93.3478 6.22253C93.0239 5.40107 92.5364 4.65584 91.9157 4.03322C91.2949 3.4106 90.5541 2.92392 89.7394 2.60346C88.8176 2.25074 87.838 2.07837 86.8527 2.09553H82.8678V15.6194H86.8527V15.6511ZM99.8742 0.349487H112.017V2.12727H101.788V8.22254H110.95V9.96857H101.757V17.4289H99.8742V0.285995V0.349487Z" fill="#C6AAC6"/>
</svg>
