<svg width="113" height="40" viewBox="0 0 113 40" fill="none" xmlns="http://www.w3.org/2000/svg">
<path d="M1.26414 39.2542H2.63511V31.2533H5.5373V30.0772H2.61731V29.3288C2.61731 28.028 3.15145 27.3687 4.21974 27.3687C4.70047 27.3687 5.05657 27.4578 5.55511 27.6004V26.4065C5.10999 26.2461 4.68267 26.1748 4.0417 26.1748C3.20487 26.1748 2.54609 26.4065 2.06536 26.8876C1.53122 27.4222 1.26414 28.2062 1.26414 29.2575V30.0594H0V31.2533H1.26414V39.2542Z" fill="#C6AAC6"/>
<path d="M10.6459 39.468C13.4234 39.468 15.471 37.2762 15.471 34.6568V34.6212C15.471 32.0195 13.459 29.8456 10.6815 29.8456C7.88614 29.8456 5.87419 32.0374 5.87419 34.6568V34.6924C5.87419 37.2941 7.88614 39.468 10.6459 39.468ZM10.6815 38.2385C8.74077 38.2385 7.28077 36.6347 7.28077 34.6568V34.6212C7.28077 32.6789 8.65174 31.0573 10.6459 31.0573C12.5866 31.0573 14.0644 32.6789 14.0644 34.6568V34.6924C14.0644 36.6169 12.6756 38.2385 10.6815 38.2385Z" fill="#C6AAC6"/>
<path d="M17.2868 39.2542H18.6578V35.5834C18.6578 32.8036 20.2958 31.3602 22.3078 31.3602H22.4146V29.8812C20.6697 29.8278 19.3344 30.9147 18.6578 32.4472V30.0416H17.2868V39.2542Z" fill="#C6AAC6"/>
<path d="M31.3718 39.4324C32.4935 39.4324 33.4015 39.0938 34.1137 38.3989C34.8259 37.6861 35.2532 36.5991 35.2532 35.1201V26.7807H33.8288V35.1379C33.8288 37.1159 32.7962 38.1316 31.3896 38.1316C30.0898 38.1316 29.3064 37.5079 28.5408 36.3496L27.5259 37.2228C28.3094 38.5058 29.5023 39.4324 31.3718 39.4324Z" fill="#C6AAC6"/>
<path d="M40.4208 39.4502C42.0588 39.4502 43.1093 38.7018 43.7503 37.8643V39.2542H45.0679V33.6233C45.0679 32.465 44.7474 31.5562 44.1242 30.9326C43.4476 30.2554 42.4506 29.9169 41.1508 29.9169C39.7976 29.9169 38.8184 30.202 37.8035 30.6831L38.213 31.8057C39.0676 31.3959 39.9223 31.1286 41.0084 31.1286C42.7354 31.1286 43.7503 31.9839 43.7503 33.6411V33.9618C42.9135 33.7302 42.1123 33.5698 40.9193 33.5698C38.5869 33.5698 36.9845 34.6212 36.9845 36.5456V36.5813C36.9845 38.488 38.7115 39.4502 40.4208 39.4502ZM40.6879 38.3632C39.4593 38.3632 38.3732 37.6861 38.3732 36.5278V36.4922C38.3732 35.3339 39.3347 34.5855 41.0618 34.5855C42.2013 34.5855 43.0737 34.7815 43.7681 34.9776V35.8685C43.7681 37.3297 42.3971 38.3632 40.6879 38.3632Z" fill="#C6AAC6"/>
<path d="M50.0545 39.3255H51.2652L55.2713 30.0416H53.7935L50.6776 37.6861L47.5796 30.0416H46.0662L50.0545 39.3255Z" fill="#C6AAC6"/>
<path d="M59.0463 39.4502C60.6843 39.4502 61.7348 38.7018 62.3758 37.8643V39.2542H63.6934V33.6233C63.6934 32.465 63.3729 31.5562 62.7497 30.9326C62.0731 30.2554 61.076 29.9169 59.7763 29.9169C58.4231 29.9169 57.4439 30.202 56.429 30.6831L56.8385 31.8057C57.6931 31.3959 58.5478 31.1286 59.6339 31.1286C61.3609 31.1286 62.3758 31.9839 62.3758 33.6411V33.9618C61.539 33.7302 60.7378 33.5698 59.5448 33.5698C57.2124 33.5698 55.61 34.6212 55.61 36.5456V36.5813C55.61 38.488 57.337 39.4502 59.0463 39.4502ZM59.3134 38.3632C58.0848 38.3632 56.9987 37.6861 56.9987 36.5278V36.4922C56.9987 35.3339 57.9602 34.5855 59.6873 34.5855C60.8268 34.5855 61.6992 34.7815 62.3936 34.9776V35.8685C62.3936 37.3297 61.0226 38.3632 59.3134 38.3632Z" fill="#C6AAC6"/>
<path d="M0 0.3493H3.73389V17.4287H0V0.285807V0.3493ZM7.93843 0.3493H15.6886C17.8223 0.3493 19.4539 0.92073 20.6148 2.06359C21.1032 2.5889 21.4825 3.2079 21.7304 3.88402C21.9783 4.56014 22.0897 5.27968 22.0582 6.00012V6.03186C22.0582 7.42869 21.7444 8.57156 21.0541 9.4287C20.377 10.2952 19.4754 10.9546 18.4498 11.3335L22.5602 17.4605H18.2302L14.5904 11.9684H11.7037V17.4605H8.00119V0.285807L7.93843 0.3493ZM15.469 8.63505C16.3789 8.63505 17.0692 8.44457 17.5712 8.00012C17.8154 7.77734 18.0069 7.50194 18.1319 7.19425C18.2568 6.88656 18.3118 6.55442 18.2929 6.22234V6.19059C18.2929 5.36519 18.0419 4.76202 17.5399 4.34932C17.0064 3.93662 16.2848 3.71439 15.3748 3.71439H11.6723V8.63505H15.469ZM33.6677 17.7462C31.2643 17.7737 28.9452 16.8511 27.204 15.1748C26.3854 14.3678 25.7401 13.3988 25.3082 12.3283C24.8763 11.2577 24.6672 10.1085 24.6939 8.95251V8.85727C24.6725 7.1047 25.1769 5.38678 26.1404 3.93019C27.1039 2.4736 28.4813 1.34681 30.0907 0.698507C31.1889 0.254061 32.3813 9.15238e-05 33.6991 9.15238e-05C36.0961 -0.0106415 38.403 0.922996 40.1314 2.60328C40.95 3.4102 41.5954 4.3792 42.0273 5.44978C42.4592 6.52036 42.6683 7.66952 42.6416 8.82553V8.85727C42.663 10.6098 42.1586 12.3278 41.1951 13.7844C40.2316 15.2409 38.8542 16.3677 37.2447 17.016C36.1116 17.4955 34.896 17.7437 33.6677 17.7462ZM33.6677 14.2541C34.3524 14.2636 35.0317 14.1304 35.6633 13.8628C36.2949 13.5952 36.8652 13.1989 37.3389 12.6986C38.2675 11.6796 38.7731 10.3383 38.7509 8.95251V8.85727C38.7809 7.44526 38.2628 6.07758 37.3075 5.04773C36.8343 4.54469 36.2647 4.1445 35.6335 3.87159C35.0023 3.59869 34.3228 3.45878 33.6364 3.46042C32.955 3.46124 32.2809 3.60239 31.6551 3.87528C31.0294 4.14817 30.4651 4.54709 29.9966 5.04773C29.049 6.06966 28.5314 7.42443 28.5533 8.82553V8.85727C28.5517 10.2641 29.066 11.6215 29.9966 12.6668C30.4673 13.143 31.0007 13.524 31.6282 13.8097C32.2558 14.1271 32.9461 14.2541 33.6991 14.2541H33.6677ZM45.9676 0.3493H49.4191L57.3262 10.889V0.3493H60.9659V17.4287H57.8282L49.6074 6.57165V17.4287H45.9676V0.3493Z" fill="white"/>
<path d="M64.8259 0.349487H71.1641C72.1054 0.349487 72.9839 0.476472 73.7684 0.730441C74.5528 0.984411 75.2117 1.33362 75.7765 1.77806C76.3299 2.28139 76.7702 2.89884 77.0679 3.58882C77.3656 4.27881 77.5137 5.02531 77.5023 5.77808V5.80983C77.5023 6.76221 77.314 7.55587 76.9689 8.25428C76.6237 8.9527 76.1217 9.52413 75.5255 10.0003C74.896 10.48 74.1828 10.8354 73.4232 11.0479C72.6074 11.3019 71.7602 11.3972 70.8503 11.3972H66.7713V17.4289H64.8259V0.349487ZM70.9444 9.68286C71.6347 9.68286 72.2623 9.58762 72.8271 9.39714C73.3619 9.24006 73.8624 8.98149 74.3018 8.63524C74.7025 8.30679 75.0239 7.89014 75.2414 7.41701C75.4589 6.94388 75.5668 6.42677 75.5569 5.90507V5.84157C75.5569 4.63522 75.1804 3.68283 74.3332 3.07966C73.486 2.47648 72.3878 2.12727 71.0386 2.12727H66.7399V9.68286H70.9444ZM80.9851 0.349487H86.8527C88.1705 0.349487 89.3629 0.539964 90.4924 0.98441C91.5906 1.42886 92.532 2.03203 93.3164 2.79394C94.1314 3.56349 94.7764 4.49871 95.209 5.53824C95.6416 6.57776 95.8521 7.69809 95.8266 8.82571V8.8892C95.8432 10.0422 95.6298 11.1867 95.199 12.2543C94.7685 13.2883 94.1269 14.2187 93.3164 14.9845C92.4987 15.7656 91.5399 16.3799 90.4924 16.794C89.3629 17.2384 88.1705 17.4289 86.8527 17.4289H80.9851V0.349487ZM86.8527 15.6511C87.9195 15.6511 88.8608 15.4924 89.7394 15.1432C90.5529 14.8383 91.2942 14.3644 91.9157 13.752C92.5372 13.1396 93.025 12.4023 93.3478 11.5876C93.6819 10.7504 93.8524 9.85558 93.8498 8.9527V8.85746C93.8498 7.90507 93.6929 7.04793 93.3478 6.22253C93.0239 5.40107 92.5364 4.65584 91.9157 4.03322C91.2949 3.4106 90.5541 2.92392 89.7394 2.60346C88.8176 2.25074 87.838 2.07837 86.8527 2.09553H82.8678V15.6194H86.8527V15.6511ZM99.8742 0.349487H112.017V2.12727H101.788V8.22254H110.95V9.96857H101.757V17.4289H99.8742V0.285995V0.349487Z" fill="#C6AAC6"/>
</svg>
