<svg width="113" height="40" viewBox="0 0 113 40" fill="none" xmlns="http://www.w3.org/2000/svg">
<path d="M1.26737 39.2769H2.64184V31.2621H5.55144V30.084H2.62399V29.3343C2.62399 28.0312 3.1595 27.3708 4.23052 27.3708C4.71247 27.3708 5.06948 27.46 5.56929 27.6028V26.4069C5.12303 26.2462 4.69462 26.1748 4.05201 26.1748C3.21305 26.1748 2.55259 26.4069 2.07063 26.8888C1.53512 27.4243 1.26737 28.2097 1.26737 29.2629V30.0662H0V31.2621H1.26737V39.2769Z" fill="#C6AAC6"/>
<path d="M10.7049 39.4911C13.4896 39.4911 15.5424 37.2955 15.5424 34.6715V34.6358C15.5424 32.0297 13.5253 29.852 10.7406 29.852C7.93815 29.852 5.92107 32.0475 5.92107 34.6715V34.7072C5.92107 37.3134 7.93815 39.4911 10.7049 39.4911ZM10.7406 38.2594C8.79497 38.2594 7.33124 36.6529 7.33124 34.6715V34.6358C7.33124 32.6902 8.70571 31.0658 10.7049 31.0658C12.6506 31.0658 14.1322 32.6902 14.1322 34.6715V34.7072C14.1322 36.6351 12.7399 38.2594 10.7406 38.2594Z" fill="#C6AAC6"/>
<path d="M17.3947 39.2769H18.7692V35.5997C18.7692 32.8151 20.4114 31.3692 22.4285 31.3692H22.5356V29.8877C20.7862 29.8341 19.4475 30.923 18.7692 32.4581V30.0483H17.3947V39.2769Z" fill="#C6AAC6"/>
<path d="M28.9376 39.2769H30.312V29.0308L38.3804 39.2769H39.5049V26.7817H38.1305V36.7957L30.2585 26.7817H28.9376V39.2769Z" fill="#C6AAC6"/>
<path d="M46.3831 39.4911C49.1677 39.4911 51.2205 37.2955 51.2205 34.6715V34.6358C51.2205 32.0297 49.2034 29.852 46.4188 29.852C43.6163 29.852 41.5992 32.0475 41.5992 34.6715V34.7072C41.5992 37.3134 43.6163 39.4911 46.3831 39.4911ZM46.4188 38.2594C44.4731 38.2594 43.0094 36.6529 43.0094 34.6715V34.6358C43.0094 32.6902 44.3839 31.0658 46.3831 31.0658C48.3288 31.0658 49.8103 32.6902 49.8103 34.6715V34.7072C49.8103 36.6351 48.418 38.2594 46.4188 38.2594Z" fill="#C6AAC6"/>
<path d="M56.9463 39.4733C58.66 39.4733 59.7131 38.5272 60.4807 37.4205V39.2769H61.8552V26.2462H60.4807V31.8155C59.7667 30.7623 58.66 29.852 56.9463 29.852C54.7329 29.852 52.5373 31.6548 52.5373 34.6537V34.6894C52.5373 37.7239 54.7329 39.4733 56.9463 39.4733ZM57.1962 38.2416C55.4291 38.2416 53.9475 36.8671 53.9475 34.6715V34.6358C53.9475 32.4046 55.4112 31.0836 57.1962 31.0836C58.9099 31.0836 60.5342 32.5117 60.5342 34.6358V34.6715C60.5342 36.7957 58.9099 38.2416 57.1962 38.2416Z" fill="#C6AAC6"/>
<path d="M68.3232 39.4911C70.0904 39.4911 71.1971 38.8128 72.1253 37.7596L71.2685 36.9921C70.5009 37.7775 69.6441 38.2951 68.3589 38.2951C66.7167 38.2951 65.3065 37.1706 65.1101 35.1713H72.4287C72.4466 35.0107 72.4466 34.9214 72.4466 34.7251C72.4466 32.0297 70.8758 29.852 68.1447 29.852C65.5742 29.852 63.7178 31.994 63.7178 34.6537V34.6894C63.7178 37.5454 65.8063 39.4911 68.3232 39.4911ZM65.1101 34.1539C65.3065 32.3688 66.4846 31.0122 68.109 31.0122C69.9654 31.0122 70.9115 32.4938 71.0543 34.1539H65.1101Z" fill="#C6AAC6"/>
<path d="M77.0891 39.4554C78.2137 39.4554 79.1241 39.1163 79.8381 38.4201C80.5521 37.7061 80.9805 36.6172 80.9805 35.1356V26.7817H79.5525V35.1535C79.5525 37.1349 78.5172 38.1523 77.107 38.1523C75.8039 38.1523 75.0185 37.5276 74.2509 36.3673L73.2335 37.242C74.0189 38.5272 75.2149 39.4554 77.0891 39.4554Z" fill="#C6AAC6"/>
<path d="M87.9603 39.4554C90.4415 39.4554 92.2265 38.0631 92.2265 35.9211V35.8854C92.2265 33.9754 90.9413 32.9758 88.1567 32.351C85.3899 31.7798 84.7651 31.1015 84.7651 29.9234V29.8877C84.7651 28.7452 85.7826 27.8706 87.4248 27.8706C88.71 27.8706 89.8703 28.2811 91.0306 29.2272L91.8517 28.1383C90.5665 27.1209 89.2991 26.6032 87.4605 26.6032C85.0864 26.6032 83.3549 28.0669 83.3549 30.0126V30.0483C83.3549 32.1011 84.6759 33.0293 87.5498 33.6541C90.1738 34.2253 90.7985 34.8679 90.7985 36.0282V36.0639C90.7985 37.2955 89.7096 38.188 88.0139 38.188C86.2824 38.188 85.0329 37.6168 83.7298 36.4209L82.8551 37.4562C84.3546 38.8128 85.9611 39.4554 87.9603 39.4554Z" fill="#C6AAC6"/>
<path d="M0 0.3493H3.73389V17.4287H0V0.285807V0.3493ZM7.93843 0.3493H15.6886C17.8223 0.3493 19.4539 0.92073 20.6148 2.06359C21.1032 2.5889 21.4825 3.2079 21.7304 3.88402C21.9783 4.56014 22.0897 5.27968 22.0582 6.00012V6.03186C22.0582 7.42869 21.7444 8.57156 21.0541 9.4287C20.377 10.2952 19.4754 10.9546 18.4498 11.3335L22.5602 17.4605H18.2302L14.5904 11.9684H11.7037V17.4605H8.00119V0.285807L7.93843 0.3493ZM15.469 8.63505C16.3789 8.63505 17.0692 8.44457 17.5712 8.00012C17.8154 7.77734 18.0069 7.50194 18.1319 7.19425C18.2568 6.88656 18.3118 6.55442 18.2929 6.22234V6.19059C18.2929 5.36519 18.0419 4.76202 17.5399 4.34932C17.0064 3.93662 16.2848 3.71439 15.3748 3.71439H11.6723V8.63505H15.469ZM33.6677 17.7462C31.2643 17.7737 28.9452 16.8511 27.204 15.1748C26.3854 14.3678 25.7401 13.3988 25.3082 12.3283C24.8763 11.2577 24.6672 10.1085 24.6939 8.95251V8.85727C24.6725 7.1047 25.1769 5.38678 26.1404 3.93019C27.1039 2.4736 28.4813 1.34681 30.0907 0.698507C31.1889 0.254061 32.3813 9.15238e-05 33.6991 9.15238e-05C36.0961 -0.0106415 38.403 0.922996 40.1314 2.60328C40.95 3.4102 41.5954 4.3792 42.0273 5.44978C42.4592 6.52036 42.6683 7.66952 42.6416 8.82553V8.85727C42.663 10.6098 42.1586 12.3278 41.1951 13.7844C40.2316 15.2409 38.8542 16.3677 37.2447 17.016C36.1116 17.4955 34.896 17.7437 33.6677 17.7462ZM33.6677 14.2541C34.3524 14.2636 35.0317 14.1304 35.6633 13.8628C36.2949 13.5952 36.8652 13.1989 37.3389 12.6986C38.2675 11.6796 38.7731 10.3383 38.7509 8.95251V8.85727C38.7809 7.44526 38.2628 6.07758 37.3075 5.04773C36.8343 4.54469 36.2647 4.1445 35.6335 3.87159C35.0023 3.59869 34.3228 3.45878 33.6364 3.46042C32.955 3.46124 32.2809 3.60239 31.6551 3.87528C31.0294 4.14817 30.4651 4.54709 29.9966 5.04773C29.049 6.06966 28.5314 7.42443 28.5533 8.82553V8.85727C28.5517 10.2641 29.066 11.6215 29.9966 12.6668C30.4673 13.143 31.0007 13.524 31.6282 13.8097C32.2558 14.1271 32.9461 14.2541 33.6991 14.2541H33.6677ZM45.9676 0.3493H49.4191L57.3262 10.889V0.3493H60.9659V17.4287H57.8282L49.6074 6.57165V17.4287H45.9676V0.3493Z" fill="white"/>
<path d="M64.8259 0.349487H71.1641C72.1054 0.349487 72.9839 0.476472 73.7684 0.730441C74.5528 0.984411 75.2117 1.33362 75.7765 1.77806C76.3299 2.28139 76.7702 2.89884 77.0679 3.58882C77.3656 4.27881 77.5137 5.02531 77.5023 5.77808V5.80983C77.5023 6.76221 77.314 7.55587 76.9689 8.25428C76.6237 8.9527 76.1217 9.52413 75.5255 10.0003C74.896 10.48 74.1828 10.8354 73.4232 11.0479C72.6074 11.3019 71.7602 11.3972 70.8503 11.3972H66.7713V17.4289H64.8259V0.349487ZM70.9444 9.68286C71.6347 9.68286 72.2623 9.58762 72.8271 9.39714C73.3619 9.24006 73.8624 8.98149 74.3018 8.63524C74.7025 8.30679 75.0239 7.89014 75.2414 7.41701C75.4589 6.94388 75.5668 6.42677 75.5569 5.90507V5.84157C75.5569 4.63522 75.1804 3.68283 74.3332 3.07966C73.486 2.47648 72.3878 2.12727 71.0386 2.12727H66.7399V9.68286H70.9444ZM80.9851 0.349487H86.8527C88.1705 0.349487 89.3629 0.539964 90.4924 0.98441C91.5906 1.42886 92.532 2.03203 93.3164 2.79394C94.1314 3.56349 94.7764 4.49871 95.209 5.53824C95.6416 6.57776 95.8521 7.69809 95.8266 8.82571V8.8892C95.8432 10.0422 95.6298 11.1867 95.199 12.2543C94.7685 13.2883 94.1269 14.2187 93.3164 14.9845C92.4987 15.7656 91.5399 16.3799 90.4924 16.794C89.3629 17.2384 88.1705 17.4289 86.8527 17.4289H80.9851V0.349487ZM86.8527 15.6511C87.9195 15.6511 88.8608 15.4924 89.7394 15.1432C90.5529 14.8383 91.2942 14.3644 91.9157 13.752C92.5372 13.1396 93.025 12.4023 93.3478 11.5876C93.6819 10.7504 93.8524 9.85558 93.8498 8.9527V8.85746C93.8498 7.90507 93.6929 7.04793 93.3478 6.22253C93.0239 5.40107 92.5364 4.65584 91.9157 4.03322C91.2949 3.4106 90.5541 2.92392 89.7394 2.60346C88.8176 2.25074 87.838 2.07837 86.8527 2.09553H82.8678V15.6194H86.8527V15.6511ZM99.8742 0.349487H112.017V2.12727H101.788V8.22254H110.95V9.96857H101.757V17.4289H99.8742V0.285995V0.349487Z" fill="#C6AAC6"/>
</svg>
