<svg width="115" height="15" viewBox="0 0 115 15" fill="none" xmlns="http://www.w3.org/2000/svg">
<path d="M6.07085 0L5.22456 3.25503H2.02342L1.37951 5.66088H7.03672L7.68064 3.25503H7.66222L8.50851 0H6.07085Z" fill="white"/>
<path d="M16.2818 3.25503L15.5919 5.66088L9.93466 5.66086L10.5786 3.25503H10.5797L11.4524 0H13.8901L13.0438 3.25503H16.2818Z" fill="white"/>
<path d="M6.28024 8.61808L6.30113 8.53852H0.597911L0 10.9915H3.18459L2.34531 14.2466H4.82896L6.28024 8.61808Z" fill="white"/>
<path d="M14.2117 10.9915L14.8556 8.53852H9.19838L8.55447 10.9915H8.56633L7.72703 14.2466H10.1647L11.004 10.9915H14.2117Z" fill="white"/>
<path fill-rule="evenodd" clip-rule="evenodd" d="M36.3075 11.132C35.7135 11.132 35.1672 11.0293 34.6685 10.824C34.1699 10.6113 33.7372 10.329 33.3705 9.97697C33.0112 9.61764 32.7289 9.19964 32.5235 8.72297C32.3255 8.23897 32.2265 7.72197 32.2265 7.17197V7.14997C32.2265 6.59997 32.3292 6.08664 32.5345 5.60997C32.7399 5.12597 33.0222 4.7043 33.3815 4.34497C33.7482 3.9783 34.1809 3.6923 34.6795 3.48697C35.1855 3.2743 35.7355 3.16797 36.3295 3.16797C36.9235 3.16797 37.4699 3.2743 37.9685 3.48697C38.4672 3.6923 38.8962 3.97464 39.2555 4.33397C39.6222 4.68597 39.9045 5.10397 40.1025 5.58797C40.3079 6.06464 40.4105 6.57797 40.4105 7.12797V7.14997C40.4105 7.69997 40.3079 8.21697 40.1025 8.70097C39.8972 9.17764 39.6112 9.5993 39.2445 9.96597C38.8852 10.3253 38.4525 10.6113 37.9465 10.824C37.4479 11.0293 36.9015 11.132 36.3075 11.132ZM36.3295 9.56997C36.6669 9.56997 36.9785 9.50764 37.2645 9.38297C37.5505 9.2583 37.7925 9.08597 37.9905 8.86597C38.1959 8.64597 38.3535 8.39297 38.4635 8.10697C38.5809 7.81364 38.6395 7.50197 38.6395 7.17197V7.14997C38.6395 6.81997 38.5809 6.5083 38.4635 6.21497C38.3535 5.92164 38.1922 5.66497 37.9795 5.44497C37.7742 5.22497 37.5285 5.05264 37.2425 4.92797C36.9565 4.79597 36.6449 4.72997 36.3075 4.72997C35.9629 4.72997 35.6475 4.7923 35.3615 4.91697C35.0829 5.04164 34.8409 5.21397 34.6355 5.43397C34.4375 5.65397 34.2799 5.91064 34.1625 6.20397C34.0525 6.48997 33.9975 6.79797 33.9975 7.12797V7.14997C33.9975 7.47997 34.0525 7.79164 34.1625 8.08497C34.2799 8.3783 34.4412 8.63497 34.6465 8.85497C34.8592 9.07497 35.1049 9.25097 35.3835 9.38297C35.6695 9.50764 35.9849 9.56997 36.3295 9.56997Z" fill="white"/>
<path d="M22.694 3.29997H21V11H22.694V3.29997Z" fill="white"/>
<path fill-rule="evenodd" clip-rule="evenodd" d="M28.1383 3.29997H24.6183V11H26.3123V8.53597H27.6433L29.2933 11H31.2733L29.3923 8.24997C29.8836 8.06664 30.2796 7.78064 30.5803 7.39197C30.8883 6.99597 31.0423 6.4863 31.0423 5.86297V5.84097C31.0423 5.10764 30.8223 4.52097 30.3823 4.08097C29.8616 3.5603 29.1136 3.29997 28.1383 3.29997ZM28.9853 6.74297C28.7653 6.94097 28.4463 7.03997 28.0283 7.03997H26.3123V4.82897H27.9953C28.4133 4.82897 28.7396 4.92064 28.9743 5.10397C29.209 5.2873 29.3263 5.5623 29.3263 5.92897V5.95097C29.3263 6.28097 29.2126 6.54497 28.9853 6.74297Z" fill="white"/>
<path d="M43.4752 3.29997H41.9132V11H43.5852V6.10497L47.3142 11H48.7552V3.29997H47.0832V8.04097L43.4752 3.29997Z" fill="white"/>
<path d="M51.4397 5.22497C51.4397 5.04897 51.4763 4.88397 51.5497 4.72997C51.6303 4.57597 51.7403 4.44397 51.8797 4.33397C52.0263 4.22397 52.1987 4.13597 52.3967 4.06997C52.602 4.00397 52.8293 3.97097 53.0787 3.97097C53.4747 3.97097 53.8523 4.03697 54.2117 4.16897C54.5783 4.30097 54.9413 4.51364 55.3007 4.80697L55.8067 4.13597C55.4107 3.82064 55 3.58597 54.5747 3.43197C54.1567 3.27064 53.6653 3.18997 53.1007 3.18997C52.734 3.18997 52.3967 3.24497 52.0887 3.35497C51.7807 3.45763 51.513 3.6043 51.2857 3.79497C51.0583 3.9783 50.8823 4.1983 50.7577 4.45497C50.633 4.71164 50.5707 4.99397 50.5707 5.30197C50.5707 5.62464 50.622 5.9033 50.7247 6.13797C50.8273 6.37264 50.985 6.57797 51.1977 6.75397C51.4103 6.92997 51.678 7.0803 52.0007 7.20497C52.3307 7.32964 52.7157 7.43964 53.1557 7.53497C53.559 7.62297 53.889 7.71464 54.1457 7.80997C54.4097 7.9053 54.615 8.01164 54.7617 8.12897C54.9083 8.2463 55.011 8.3783 55.0697 8.52497C55.1283 8.6643 55.1577 8.82564 55.1577 9.00897C55.1577 9.40497 55 9.72397 54.6847 9.96597C54.3767 10.208 53.9623 10.329 53.4417 10.329C52.9063 10.329 52.4333 10.241 52.0227 10.065C51.612 9.88164 51.205 9.60664 50.8017 9.23997L50.2627 9.87797C50.7247 10.296 51.2087 10.6076 51.7147 10.813C52.228 11.011 52.7927 11.11 53.4087 11.11C53.79 11.11 54.142 11.0586 54.4647 10.956C54.7873 10.8533 55.0623 10.7066 55.2897 10.516C55.5243 10.3253 55.7077 10.0943 55.8397 9.82297C55.9717 9.55164 56.0377 9.25097 56.0377 8.92097C56.0377 8.32697 55.8323 7.8613 55.4217 7.52397C55.0183 7.18664 54.3877 6.92264 53.5297 6.73197C53.1043 6.64397 52.756 6.5523 52.4847 6.45697C52.2133 6.3543 52.0007 6.2443 51.8467 6.12697C51.6927 6.0023 51.5863 5.86664 51.5277 5.71997C51.469 5.5733 51.4397 5.4083 51.4397 5.22497Z" fill="white"/>
<path fill-rule="evenodd" clip-rule="evenodd" d="M65.0318 5.62097C65.2225 6.09764 65.3178 6.60364 65.3178 7.13897C65.3178 7.6743 65.2225 8.18397 65.0318 8.66797C64.8411 9.14464 64.5735 9.5663 64.2288 9.93297C63.8841 10.2996 63.4698 10.593 62.9858 10.813C62.5018 11.0256 61.9665 11.132 61.3798 11.132C60.7931 11.132 60.2578 11.0256 59.7738 10.813C59.2971 10.6003 58.8865 10.3143 58.5418 9.95497C58.1971 9.5883 57.9295 9.16664 57.7388 8.68997C57.5555 8.20597 57.4638 7.6963 57.4638 7.16097C57.4638 6.62564 57.5591 6.11964 57.7498 5.64297C57.9405 5.15897 58.2081 4.73363 58.5528 4.36697C58.8975 4.0003 59.3118 3.71063 59.7958 3.49797C60.2798 3.27797 60.8151 3.16797 61.4018 3.16797C61.9885 3.16797 62.5201 3.2743 62.9968 3.48697C63.4808 3.69964 63.8951 3.9893 64.2398 4.35597C64.5845 4.7153 64.8485 5.13697 65.0318 5.62097ZM64.1848 8.40397C64.3388 8.0153 64.4158 7.60097 64.4158 7.16097C64.4158 6.72097 64.3388 6.30664 64.1848 5.91797C64.0381 5.5293 63.8291 5.19197 63.5578 4.90597C63.2865 4.61997 62.9638 4.39263 62.5898 4.22397C62.2231 4.0553 61.8198 3.97097 61.3798 3.97097C60.9398 3.97097 60.5328 4.0553 60.1588 4.22397C59.7921 4.3853 59.4768 4.60897 59.2128 4.89497C58.9488 5.18097 58.7398 5.5183 58.5858 5.90697C58.4391 6.2883 58.3658 6.69897 58.3658 7.13897C58.3658 7.57897 58.4391 7.9933 58.5858 8.38197C58.7398 8.77064 58.9525 9.10797 59.2238 9.39397C59.4951 9.67997 59.8141 9.9073 60.1808 10.076C60.5548 10.2446 60.9618 10.329 61.4018 10.329C61.8418 10.329 62.2451 10.2483 62.6118 10.087C62.9858 9.9183 63.3048 9.69097 63.5688 9.40497C63.8328 9.11897 64.0381 8.7853 64.1848 8.40397Z" fill="white"/>
<path d="M72.6835 3.29997H67.1505V11H68.0195V7.64497H72.1885V6.85297H68.0195V4.10297H72.6835V3.29997Z" fill="white"/>
<path d="M79.8692 4.10297H77.2842V11H76.4043V4.10297H73.8192V3.29997H79.8692V4.10297Z" fill="white"/>
<path d="M84.0541 9.71297L81.8541 3.29997H80.9081L83.6581 11.055H84.3841L86.5071 4.80697L88.6191 11.055H89.3561L92.1061 3.29997H91.1931L88.9931 9.71297L86.8811 3.27797H86.1661L84.0541 9.71297Z" fill="white"/>
<path fill-rule="evenodd" clip-rule="evenodd" d="M95.5444 3.24497H96.3584L99.8674 11H98.9324L98.0304 8.96497H93.8394L92.9264 11H92.0354L95.5444 3.24497ZM94.1804 8.18397H97.6894L95.9404 4.25697L94.1804 8.18397Z" fill="white"/>
<path fill-rule="evenodd" clip-rule="evenodd" d="M107.755 11L105.39 7.85397C105.691 7.80264 105.969 7.71464 106.226 7.58997C106.483 7.4653 106.703 7.3113 106.886 7.12797C107.077 6.9373 107.223 6.7173 107.326 6.46797C107.429 6.2113 107.48 5.92164 107.48 5.59897C107.48 5.2543 107.414 4.94264 107.282 4.66397C107.15 4.37797 106.963 4.13597 106.721 3.93797C106.479 3.73264 106.186 3.57497 105.841 3.46497C105.504 3.35497 105.122 3.29997 104.697 3.29997H101.386V11H102.255V8.00797H104.455L106.688 11H107.755ZM106.6 5.63197C106.6 5.8813 106.549 6.10497 106.446 6.30297C106.351 6.50097 106.215 6.66964 106.039 6.80897C105.863 6.94097 105.654 7.04364 105.412 7.11697C105.17 7.1903 104.906 7.22697 104.62 7.22697H102.255V4.10297H104.631C105.254 4.10297 105.738 4.23864 106.083 4.50997C106.428 4.77397 106.6 5.14797 106.6 5.63197Z" fill="white"/>
<path d="M109.335 3.29997H114.901V4.09197H110.204V6.72097H114.406V7.51297H110.204V10.208H114.956V11H109.335V3.29997Z" fill="white"/>
</svg>
